<svg width="448" height="449" viewBox="0 0 448 449" fill="none" xmlns="http://www.w3.org/2000/svg">
<path d="M446.583 387.93L445.125 382.43C437.938 354.305 417.542 330.753 390.542 319.43C389.604 319.003 388.708 318.617 388.167 318.409C351.849 304.271 312.342 303.927 275.904 317.339C245.004 328.711 222.818 356.206 214.708 388.117C211.583 400.346 213.917 413.357 221.104 423.815C228.563 434.7 240.521 441.867 253.896 443.461C279.167 446.492 305 448.034 330.625 448.034C356.208 448.034 382.063 446.492 407.438 443.45C420.792 441.857 432.729 434.711 440.208 423.846C447.375 413.419 449.729 400.44 446.667 388.221C446.646 388.128 446.625 388.023 446.583 387.93ZM402.354 401.096C354.865 406.135 306.146 406.753 258.979 401.107C257.292 400.898 256.521 400.034 256.042 398.617L257.479 392.992C261.521 377.18 273.146 364.159 288.583 358.159C302.229 352.846 316.375 350.148 330.625 350.148C344.875 350.148 359.021 352.846 371.354 357.596C371.646 357.732 372.354 358.034 372.958 358.284C373.313 358.451 373.667 358.617 374.042 358.763C389 365.044 399.833 377.513 403.854 393.201C403.854 393.201 406.324 400.674 402.354 401.096ZM416 214.617C416 166.878 377.729 128.034 330.667 128.034C283.604 128.034 245.333 166.878 245.333 214.617C245.333 262.367 283.604 301.211 330.667 301.211C377.729 301.211 416 262.367 416 214.617ZM288 214.617C288 190.398 307.146 170.701 330.667 170.701C354.188 170.701 373.333 190.398 373.333 214.617C373.333 238.836 354.188 258.544 330.667 258.544C307.146 258.544 288 238.836 288 214.617ZM228.271 147.18L226.292 143.076C220.146 130.346 211.083 119.169 199.938 110.294C219.396 89.3568 230.396 62.4609 230.396 34.0234V28.4193C230.396 18.1068 223.021 9.27343 212.875 7.42968C158.479 -2.47656 103.25 -2.47656 48.8125 7.42968C44.875 8.14842 41.2291 9.95051 38.2708 12.6276C13.9583 34.7318 0 65.5234 0 97.1068V99.5443C0 102.253 0.520833 104.93 1.52083 107.451L4.33333 114.513C11.6667 132.878 23.75 149.263 39.1875 162.159C23.7292 189.326 15.6458 219.461 15.6458 250.419V256.034C15.6458 262.638 18.7083 268.867 23.9375 272.909C27.7083 275.825 32.3125 277.367 36.9792 277.367C38.7708 277.367 40.5833 277.138 42.3542 276.68L55.5208 273.253C122.688 255.805 181.313 220.294 225.083 170.544C230.75 164.107 232 154.909 228.271 147.18ZM155.479 134.044C166.625 137.69 176.208 144.534 182.833 153.357C149.563 187.284 107.667 212.638 60.2917 227.523C63.9167 206.742 72.4375 186.857 85.4792 169.065C89.0833 164.148 90.4167 157.93 89.125 151.982C87.8542 146.023 84.1041 140.898 78.7917 137.898C62.8125 128.826 50.4375 114.898 43.9583 98.6901L42.6875 95.4922C43.1042 78.0651 50.1458 61.5547 62.7708 48.3047C103.875 41.4714 145.396 40.836 186.563 46.4401C182.792 66.2006 170.104 83.9922 151.063 95.5339C143.937 99.8464 139.979 107.93 140.938 116.201C141.875 124.482 147.562 131.451 155.479 134.044Z" fill="#3D6CEE"/>
</svg>
