<svg width="448" height="450" viewBox="0 0 448 450" fill="none" xmlns="http://www.w3.org/2000/svg">
<path d="M172.878 338.896C157.805 337.292 142.461 334.542 127.169 330.646C111.773 326.812 99.815 314.875 95.9505 299.417C92.1589 284.437 89.4297 269.333 87.8254 254.521C87.1692 243.333 77.8879 234.562 66.5337 234.562C54.7524 234.562 45.2004 244.208 45.2004 256C45.2004 256.75 45.242 257.5 45.3149 258.229C47.117 275.312 50.2421 292.687 54.5753 309.812C62.2523 340.541 86.1171 364.396 116.752 372.041C133.93 376.396 151.304 379.521 168.138 381.291C175.815 382.187 183.263 382.875 190.711 383.312C191.138 383.333 191.565 383.354 191.992 383.354C203.2 383.354 212.596 374.604 213.263 363.27C213.961 351.52 204.992 341.416 193.232 340.729C186.596 340.333 179.961 339.729 172.878 338.896ZM253.982 87.8125C268.971 89.3958 284.232 92.1457 299.44 96.0209C314.836 99.8543 326.794 111.792 330.659 127.25C334.513 142.479 337.274 157.854 338.888 173.167C339.69 180 340.305 186.646 340.711 193.292C341.398 204.604 350.794 213.333 361.982 213.333C362.419 213.333 362.857 213.312 363.294 213.292C375.055 212.583 384.013 202.479 383.294 190.708C382.846 183.271 382.169 175.833 381.294 168.438C379.492 151.354 376.367 133.979 372.034 116.854C364.357 86.125 340.492 62.2709 309.857 54.6251C292.68 50.2709 275.305 47.1458 258.211 45.3542C257.461 45.2708 256.721 45.2292 255.971 45.2292H255.763C243.982 45.2292 234.534 54.771 234.534 66.5626C234.534 77.6666 243.117 86.7917 253.982 87.8125ZM428.148 275.25C427.638 274.729 427.086 274.208 426.513 273.729C410.294 260.187 392.013 249.312 372.169 241.396L360.346 236.708C348.211 231.771 334.305 231.75 322.44 236.604L310.2 241.417C290.43 249.354 272.2 260.229 255.867 273.875C250.178 278.656 245.751 284.701 242.627 291.325C242.539 291.49 242.379 291.582 242.294 291.75C242.208 291.922 242.229 292.109 242.148 292.282C240.754 295.409 239.569 298.618 238.846 301.958C233.096 327.896 233.096 355.146 238.825 380.604C241.19 391.5 247.263 401.542 255.94 408.875C256.398 409.25 256.867 409.604 257.346 409.958C273.086 422.875 290.825 433.375 310.075 441.125L322.19 446C328.346 448.479 334.815 449.708 341.284 449.708C347.732 449.708 354.169 448.479 360.283 446.021L372.461 441.125C386.909 435.313 400.575 427.917 413.127 419.125C417.179 416.25 421.148 413.209 425.023 410.063C425.565 409.688 426.085 409.292 426.596 408.875C435.294 401.521 441.377 391.479 443.679 380.75C446.534 368.063 447.971 354.792 447.971 341.333C447.971 327.75 446.523 314.479 443.721 302.104C441.503 291.792 436.013 282.354 428.148 275.25ZM319.971 398.551C306.779 392.591 294.383 385.307 283.461 376.188C283.252 376 283.034 375.833 282.815 375.667C281.648 374.479 280.836 373.021 280.482 371.396C277.708 359.048 276.894 346.178 277.638 333.338L319.971 354.521V398.551ZM340.742 317.229L298.243 295.944C307.017 290.201 316.151 285.013 325.95 281.084L338.315 276.208C340.18 275.417 342.336 275.417 344.409 276.292L356.398 281.042C365.416 284.637 373.853 289.242 381.966 294.341L340.742 317.229ZM402.013 371.604C401.7 373.063 400.898 374.479 399.732 375.667C399.565 375.792 399.399 375.917 399.242 376.042C395.753 378.896 392.19 381.667 388.575 384.229C380.581 389.835 371.812 394.535 362.638 398.671V353.866L404.728 330.493C404.999 334.081 405.305 337.658 405.305 341.333C405.305 351.667 404.211 361.792 402.013 371.604ZM7.02352 164C12.2527 184.875 28.461 201.062 49.3047 206.271C68.065 210.958 87.3463 213.312 106.638 213.312C125.93 213.312 145.211 210.958 163.961 206.271C184.815 201.062 201.023 184.875 206.253 163.979C215.617 126.479 215.617 86.8542 206.253 49.3333C201.023 28.4582 184.815 12.2709 163.961 7.0624C145.282 2.39317 126.073 0.0625056 106.861 0.0441589C106.782 0.0428789 106.716 0 106.638 0C106.56 0 106.494 0.0428792 106.415 0.0443726C87.2031 0.0625059 67.9935 2.39317 49.3151 7.0624C28.461 12.2709 12.2525 28.4582 7.02352 49.3542C-2.34117 86.8542 -2.34117 126.479 7.02352 164ZM48.4194 59.7084C49.8047 54.1459 54.1173 49.8334 59.659 48.4376C68.0951 46.3334 76.6745 44.9335 85.3047 43.9844V64C85.3047 75.7916 94.8567 85.3333 106.638 85.3333C118.419 85.3333 127.971 75.7916 127.971 64V43.9844C136.602 44.9335 145.181 46.3334 153.617 48.4376C159.148 49.8334 163.471 54.1459 164.857 59.6875C172.534 90.4166 172.534 122.917 164.857 153.625C163.471 159.187 159.159 163.5 153.617 164.896C122.899 172.563 90.4089 172.563 59.6484 164.896C54.1173 163.5 49.8047 159.187 48.4194 153.646C40.7421 122.917 40.7421 90.4166 48.4194 59.7084Z" fill="white"/>
</svg>
