<svg width="512" height="512" viewBox="0 0 512 512" fill="none" xmlns="http://www.w3.org/2000/svg">
<path d="M256.512 0H255.488C227.494 0 204.8 22.6938 204.8 50.688V461.312C204.8 489.306 227.494 512 255.488 512H256.512C284.506 512 307.2 489.306 307.2 461.312V50.688C307.2 22.6938 284.506 0 256.512 0Z" fill="#3D6CEE"/>
<path d="M461.312 204.8H50.688C22.6938 204.8 0 227.494 0 255.488V256.512C0 284.506 22.6938 307.2 50.688 307.2H461.312C489.306 307.2 512 284.506 512 256.512V255.488C512 227.494 489.306 204.8 461.312 204.8Z" fill="#3D6CEE"/>
</svg>
