<svg width="385" height="385" viewBox="0 0 385 385" fill="none" xmlns="http://www.w3.org/2000/svg">
<path d="M373.575 322.675L242.975 192.075L373.575 61.475C387.675 47.375 387.675 24.675 373.575 10.575C359.475 -3.525 336.775 -3.525 322.675 10.575L192.075 141.175L61.475 10.575C47.375 -3.525 24.675 -3.525 10.575 10.575C-3.525 24.675 -3.525 47.375 10.575 61.475L141.175 192.075L10.575 322.675C-3.525 336.775 -3.525 359.475 10.575 373.575C24.675 387.675 47.375 387.675 61.475 373.575L192.075 242.975L322.675 373.575C336.775 387.675 359.475 387.675 373.575 373.575C387.575 359.475 387.575 336.675 373.575 322.675Z" fill="white"/>
</svg>
