<svg width="384" height="384" viewBox="0 0 384 384" fill="none" xmlns="http://www.w3.org/2000/svg">
<path d="M7.0288 334.646C12.258 355.521 28.4662 371.729 49.3413 376.937C68.0912 381.646 87.362 383.979 106.654 383.979C125.945 383.979 145.216 381.646 163.966 376.958C174.958 374.204 184.507 368.277 191.986 360.358C199.468 368.275 209.017 374.195 220.008 376.937C238.758 381.646 258.029 383.979 277.32 383.979C296.612 383.979 315.883 381.646 334.633 376.958C355.508 371.729 371.716 355.521 376.924 334.646C386.32 297.146 386.32 257.521 376.945 220.021C371.716 199.146 355.529 182.937 334.633 177.729C315.895 173.023 296.625 170.677 277.357 170.674L277.32 170.667L277.284 170.675C258.016 170.677 238.746 173.024 220.008 177.708C209.018 180.461 199.47 186.387 191.991 194.305C191.237 193.507 190.481 192.751 189.682 191.997C197.598 184.516 203.516 174.969 206.258 163.979C215.654 126.479 215.654 86.8544 206.279 49.3542C201.05 28.4791 184.862 12.2709 163.966 7.06261C145.228 2.35669 125.959 0.0104539 106.69 0.00789388L106.654 0L106.617 0.00789388C87.349 0.0104539 68.0795 2.35691 49.3413 7.04171C28.4662 12.2709 12.258 28.4791 7.04949 49.3542C-2.34635 86.8542 -2.34634 126.479 7.02859 163.979C9.78251 174.972 15.7096 184.52 23.6289 191.999C15.7123 199.481 9.79168 209.03 7.04949 220.021C-2.34635 257.521 -2.34634 297.146 7.0288 334.646ZM219.112 230.354C220.487 224.812 224.799 220.5 230.362 219.104C238.792 217 247.363 215.6 255.987 214.651V234.667C255.987 246.458 265.529 256 277.32 256C289.112 256 298.654 246.458 298.654 234.667V214.651C307.277 215.6 315.849 217 324.279 219.104L324.299 219.125C329.841 220.5 334.154 224.813 335.549 230.375C343.237 261.083 343.237 293.583 335.528 324.313C334.154 329.854 329.841 334.167 324.279 335.562C293.591 343.229 261.112 343.25 230.341 335.542C224.799 334.167 220.487 329.854 219.091 324.292C211.404 293.583 211.404 261.083 219.112 230.354ZM48.4453 59.6875C49.8203 54.1457 54.1328 49.8334 59.6953 48.4376C68.1251 46.3334 76.6966 44.9335 85.3204 43.9844V64C85.3204 75.7916 94.8622 85.3333 106.654 85.3333C118.445 85.3333 127.987 75.7916 127.987 64V43.9844C136.611 44.9335 145.182 46.3334 153.612 48.4376L153.633 48.4585C159.175 49.8334 163.487 54.1459 164.883 59.7084C172.57 90.4166 172.57 122.917 164.862 153.646C163.487 159.188 159.175 163.5 153.612 164.896C122.924 172.563 90.4453 172.583 59.6746 164.875C54.1328 163.5 49.8205 159.187 48.4246 153.625C40.7372 122.917 40.7372 90.4166 48.4453 59.6875ZM48.4453 230.354C49.8203 224.812 54.1328 220.5 59.6953 219.104C68.1251 217 76.6966 215.6 85.3204 214.651V234.667C85.3204 246.458 94.8622 256 106.654 256C118.445 256 127.987 246.458 127.987 234.667V214.651C136.611 215.6 145.182 217 153.612 219.104L153.633 219.125C159.175 220.5 163.487 224.813 164.883 230.375C172.57 261.083 172.57 293.583 164.862 324.313C163.487 329.854 159.175 334.167 153.612 335.562C122.924 343.229 90.4453 343.25 59.6746 335.542C54.1328 334.167 49.8205 329.854 48.4246 324.292C40.7372 293.583 40.7372 261.083 48.4453 230.354Z" fill="#3D6CEE"/>
<path d="M343.904 40.0839C335.57 31.7507 322.07 31.7507 313.737 40.0839L298.654 55.1672L283.57 40.0839C275.237 31.7507 261.737 31.7507 253.404 40.0839C245.071 48.4171 245.071 61.9173 253.404 70.2505L268.487 85.3338L253.404 100.417C245.071 108.75 245.071 122.251 253.404 130.584C257.57 134.75 263.029 136.834 268.487 136.834C273.946 136.834 279.404 134.75 283.57 130.584L298.654 115.5L313.737 130.584C317.904 134.75 323.362 136.834 328.82 136.834C334.279 136.834 339.737 134.75 343.904 130.584C352.237 122.251 352.237 108.75 343.904 100.417L328.82 85.3338L343.904 70.2505C352.237 61.9171 352.237 48.4171 343.904 40.0839Z" fill="#3D6CEE"/>
</svg>
