<svg width="406" height="427" viewBox="0 0 406 427" fill="none" xmlns="http://www.w3.org/2000/svg">
<path d="M304.16 276.218L276.577 303.801L270.327 297.551C261.993 289.218 248.493 289.218 240.16 297.551C231.827 305.884 231.827 319.384 240.16 327.718L261.493 349.051C265.66 353.218 271.118 355.301 276.577 355.301C282.035 355.301 287.493 353.218 291.66 349.051L334.327 306.384C342.66 298.051 342.66 284.551 334.327 276.218C325.993 267.885 312.494 267.884 304.16 276.218Z" fill="black"/>
<path d="M340.454 204.557C340.79 196.397 341.275 188.233 341.275 180.071C341.275 136.03 336.816 92.0923 328.077 49.6548C325.264 35.3213 319.879 21.9048 312.066 9.77979C305.858 0.154832 293.16 -2.84527 283.264 2.98811L255.368 19.4882L223.264 2.48806C217.014 -0.803674 209.535 -0.803674 203.285 2.48806L170.608 19.8005L137.931 2.48806C131.681 -0.803674 124.202 -0.803674 117.952 2.48806L85.8477 19.4882L57.9518 2.98811C48.0872 -2.86597 35.3787 0.133926 29.1496 9.77979C21.3371 21.9048 15.9518 35.3213 13.181 49.4673C-4.39192 134.905 -4.39192 225.217 13.1705 310.634C20.8685 348.28 45.4206 378.488 77.2435 389.447C107.754 399.988 139.16 405.342 170.608 405.342C185.655 405.342 200.835 403.781 215.917 401.312C236.355 417.442 261.344 426.676 287.941 426.676C352.639 426.676 405.275 374.03 405.275 309.342C405.275 264.164 379.605 223.884 340.454 204.557ZM91.1601 349.113C73.5247 343.03 59.6601 325.03 54.9726 302.071C38.5559 222.259 38.5559 137.863 55.0142 57.863C55.4203 55.7796 55.9204 53.7171 56.4934 51.6964L74.41 62.3005C80.7955 66.0921 88.6809 66.2589 95.2642 62.8006L127.941 45.4882L160.618 62.8006C166.868 66.0923 174.347 66.0923 180.598 62.8006L213.275 45.4882L245.952 62.8006C252.525 66.2589 260.42 66.0923 266.806 62.3005L284.712 51.7173C285.306 53.7798 285.816 55.9048 286.244 58.0714C294.452 97.863 298.608 138.926 298.608 180.071C298.608 184.196 298.566 188.342 298.473 192.467C295.004 192.155 291.493 192.009 287.941 192.009C258.932 192.009 232.4 202.65 211.898 220.156C212.639 217.989 213.275 215.76 213.275 213.342C213.275 201.551 203.723 192.009 191.941 192.009H106.608C94.8266 192.009 85.2746 201.551 85.2746 213.342C85.2746 225.134 94.8266 234.676 106.608 234.676H191.941C194.359 234.676 196.591 234.042 198.758 233.301C181.25 253.803 170.608 280.336 170.608 309.342C170.608 313.7 170.898 318.027 171.379 322.321C171.535 323.721 171.818 325.092 172.023 326.484C172.453 329.381 172.927 332.263 173.569 335.109C173.922 336.67 174.361 338.199 174.776 339.743C175.491 342.403 176.268 345.035 177.164 347.633C177.686 349.143 178.243 350.627 178.825 352.114C179.854 354.744 180.984 357.321 182.198 359.868C182.582 360.673 182.862 361.526 183.264 362.321C152.212 363.988 121.306 359.53 91.1601 349.113ZM287.941 384.009C268.556 384.009 250.327 376.738 236.431 363.363C221.504 349.28 213.275 330.092 213.275 309.342C213.275 268.176 246.775 234.676 287.941 234.676C296.327 234.676 304.254 235.988 311.952 238.717C342.254 248.759 362.608 277.134 362.608 309.342C362.608 350.509 329.108 384.009 287.941 384.009Z" fill="black"/>
<path d="M106.608 170.675H148.462C160.243 170.675 169.795 161.134 169.795 149.342C169.795 137.551 160.243 128.009 148.462 128.009H106.608C94.8267 128.009 85.2747 137.551 85.2747 149.342C85.2747 161.134 94.8267 170.675 106.608 170.675Z" fill="black"/>
</svg>
