<svg width="406" height="448" viewBox="0 0 406 448" fill="none" xmlns="http://www.w3.org/2000/svg">
<path d="M285.208 78.6629C292.667 115.975 297.083 153.892 298.313 191.371C298.688 203.163 309.188 212.829 320.313 211.996C332.104 211.621 341.333 201.767 340.938 189.996C339.646 150.163 334.979 109.892 327.042 70.2671C320.417 37.3295 294.938 12.0171 263.813 7.32954C229.813 1.9337 195.146 -0.545445 160.188 0.100315C159.202 0.114609 158.021 0.341165 156.889 0.528685C156.755 0.549592 156.634 0.49349 156.5 0.516957C156.409 0.53253 156.342 0.595037 156.253 0.61061C155.966 0.66565 155.629 0.668208 155.375 0.725381C154 1.03791 152.667 1.47546 151.375 2.03781C84.4373 31.6421 32.1041 85.1836 3.58336 153.871C3.1328 154.94 3.04426 156.112 2.7761 157.236C2.63402 157.822 2.26048 158.285 2.16662 158.892C2.12758 159.147 2.2304 159.379 2.20053 159.633C2.16277 159.951 2.00256 160.238 1.9791 160.559C0.666669 178.184 0 195.934 0 213.35C0 260.955 4.81259 309.08 14.2916 356.434C20.9167 389.371 46.3957 414.684 77.5209 419.371C100.875 423.059 124.729 425.392 148.438 426.267C148.708 426.288 148.979 426.288 149.25 426.288C160.667 426.288 170.125 417.246 170.542 405.746C170.979 393.976 161.792 384.08 150.021 383.642C128.021 382.809 105.855 380.663 84.042 377.226C70.4378 375.163 59.2294 363.434 56.1254 348.038C47.1874 303.455 42.6667 258.142 42.6667 213.35C42.6667 204.205 43.2435 194.896 43.6303 185.625C48.6276 185.925 53.6252 186.205 58.6251 186.205C79.2708 186.205 99.9375 183.663 120.375 178.58C148.979 171.434 171.521 150.559 180.604 122.955C185.771 107.809 188.375 91.7048 188.375 75.1006C188.375 67.2882 187.771 59.4757 186.375 50.0589L185.257 43.3492C209.503 43.9924 233.521 45.7125 257.292 49.4755C270.896 51.538 282.104 63.267 285.208 78.6629ZM140.146 109.413C135.604 123.225 124.333 133.621 110.083 137.184C92.5131 141.539 74.3059 143.376 56.2513 143.197C77.0925 106.15 107.108 75.426 143.77 53.8844L144.229 56.6422C145.229 63.5589 145.709 69.413 145.709 75.1004C145.708 87.017 143.854 98.4963 140.146 109.413Z" fill="#3D6CEE"/>
<path d="M398.271 398.663C407.667 361.163 407.667 321.538 398.292 284.038C393.063 263.163 376.875 246.954 355.979 241.746C337.241 237.04 317.971 234.694 298.703 234.691L298.667 234.684L298.63 234.691C279.362 234.694 260.092 237.041 241.354 241.725C220.479 246.955 204.271 263.163 199.063 284.038C189.667 321.538 189.667 361.163 199.042 398.663C204.271 419.538 220.479 435.746 241.354 440.955C260.104 445.663 279.375 447.996 298.667 447.996C317.958 447.996 337.229 445.663 355.979 440.975C376.854 435.746 393.062 419.538 398.271 398.663ZM345.625 399.579C314.937 407.246 282.458 407.267 251.688 399.558C246.146 398.184 241.833 393.871 240.438 388.309C232.75 357.6 232.75 325.1 240.459 294.371C241.833 288.829 246.146 284.517 251.708 283.121C260.138 281.017 268.71 279.617 277.333 278.668V298.684C277.333 310.475 286.875 320.017 298.667 320.017C310.458 320.017 320 310.475 320 298.684V278.668C328.624 279.617 337.195 281.017 345.625 283.121L345.646 283.142C351.188 284.517 355.5 288.83 356.896 294.392C364.583 325.1 364.583 357.6 356.875 388.329C355.5 393.871 351.187 398.184 345.625 399.579Z" fill="#3D6CEE"/>
</svg>
