<svg width="448" height="448" viewBox="0 0 448 448" fill="none" xmlns="http://www.w3.org/2000/svg">
<path d="M363.24 202.562L352.333 192.083C322.709 163.583 274.5 163.583 244.875 192.083L234.01 202.541C191.417 243.458 162.646 295.145 150.813 352C146.823 371.166 150.646 390.729 161.563 407.104C172.896 424.125 190.406 435.666 210.886 439.625C239.99 445.208 269.292 448 298.604 448C327.917 448 357.24 445.208 386.365 439.604C406.834 435.666 424.344 424.125 435.677 407.083C446.594 390.708 450.406 371.125 446.406 351.958C434.573 295.166 405.813 243.5 363.24 202.562ZM400.167 383.437C395.208 390.875 387.437 395.958 378.281 397.708C325.406 407.875 271.781 407.854 218.948 397.729C209.792 395.958 202.021 390.896 197.073 383.458C192.542 376.666 190.948 368.583 192.583 360.708C202.656 312.291 227.208 268.25 263.583 233.291L274.448 222.833C287.781 210.021 309.448 210.062 322.76 222.833L333.667 233.312C370.021 268.271 394.562 312.312 404.646 360.708C406.292 368.562 404.698 376.646 400.167 383.437Z" fill="#3D6CEE"/>
<path d="M298.615 299.188C286.833 299.188 277.281 308.729 277.281 320.521V362.625C277.281 374.417 286.833 383.958 298.615 383.958C310.396 383.958 319.948 374.417 319.948 362.625V320.521C319.948 308.729 310.396 299.188 298.615 299.188Z" fill="#3D6CEE"/>
<path d="M298.615 277.292C310.397 277.292 319.948 267.74 319.948 255.958C319.948 244.176 310.397 234.625 298.615 234.625C286.833 234.625 277.281 244.176 277.281 255.958C277.281 267.74 286.833 277.292 298.615 277.292Z" fill="#3D6CEE"/>
<path d="M358.771 115.167C359.416 115.854 360.114 116.5 360.864 117.104C368.552 123.313 373.917 131.875 376.01 141.417C378.323 151.458 380.166 161.875 381.479 172.417C382.927 184.104 393.698 192.292 405.281 190.937C416.968 189.479 425.271 178.833 423.812 167.125C422.323 155.166 420.229 143.291 417.635 132.041C413.729 114.229 403.937 97.9167 389.948 85.8124C389.281 85.0832 388.552 84.3956 387.781 83.7708C353.51 55.6667 314.854 33.1041 272.854 16.6875L246.062 6.27082C225.271 -2.08332 201.427 -2.06242 180.906 6.1667L153.542 16.7084C111.667 33.1875 73.1042 55.7499 38.9167 83.7708C38.625 83.9999 38.3021 84.2915 37.9688 84.604C28.0612 92.9388 20.3789 103.433 15.0728 114.923C14.9348 115.176 14.6914 115.323 14.5625 115.583C14.4439 115.824 14.474 116.086 14.3646 116.329C12.1472 121.375 10.2709 126.552 9.09373 131.917C-3.03128 185.542 -3.02083 241.813 9.06259 294.458C13.1355 313.021 23.7083 330.167 38.8335 342.687C39.4897 343.229 40.1877 343.729 40.9064 344.187C55.2294 355.792 70.5314 366.604 86.4482 376.312C89.917 378.437 93.7504 379.437 97.5419 379.437C104.729 379.437 111.75 375.812 115.771 369.229C121.907 359.166 118.74 346.041 108.688 339.896C93.792 330.812 79.5003 320.666 66.1982 309.75C65.6774 309.333 65.146 308.937 64.5939 308.562C57.5522 302.25 52.6564 294.041 50.698 285.125C41.0873 243.263 40.5913 198.988 48.2671 155.954L80.4273 171.775V235.167C80.4273 246.958 89.9793 256.5 101.761 256.5C113.542 256.5 123.094 246.958 123.094 235.167V192.762L161.229 211.521C164.25 213 167.448 213.687 170.594 213.687C178.49 213.687 186.073 209.292 189.771 201.729C194.958 191.146 190.584 178.375 180 173.187L158.723 162.726L308.643 81.013C326.272 91.0885 343.05 102.454 358.771 115.167ZM111.857 139.684L65.7318 117.006L65.7813 116.958C66.0313 116.75 66.3125 116.521 66.5939 116.25C97.1876 91.2916 131.688 71.1666 169.031 56.4583L196.521 45.8542C207.219 41.5832 219.49 41.5832 230.396 45.9376L257.354 56.4376C258.723 56.9729 260.017 57.6381 261.378 58.1876L111.857 139.684Z" fill="#3D6CEE"/>
</svg>
