<svg width="342" height="449" viewBox="0 0 342 449" fill="none" xmlns="http://www.w3.org/2000/svg">
<path d="M68.1939 33.306C55.2943 38.5077 43.4974 46.4452 33.5729 56.7917C18.4791 72.7292 8.87509 93.5625 6.52074 115.417C2.19797 154.875 0 195 0 234.667C0 274.333 2.19797 314.458 6.52074 353.875C8.87488 375.771 18.4792 396.604 33.7186 412.708C49.3436 428.854 69.1561 439.083 90.979 442.229C117.427 446.125 144.052 448.063 170.677 448.063C197.292 448.063 223.896 446.125 250.302 442.229C272.177 439.083 291.989 428.854 307.76 412.542C322.854 396.604 332.458 375.771 334.812 353.917C339.135 314.458 341.333 274.333 341.333 234.667C341.333 195 339.135 154.875 334.813 115.458C332.458 93.5625 322.854 72.7292 307.667 56.6876C297.814 46.4207 286.035 38.5013 273.139 33.3047C265.343 13.625 246.361 0 224 0H117.333C94.9713 0 75.9883 13.625 68.1939 33.306ZM240.345 103.837C243.314 102.872 246.141 101.68 248.857 100.233C249.922 99.6666 250.988 99.1548 252.009 98.5195C255.508 96.3424 258.82 93.9036 261.719 91.0012C261.759 90.9609 261.788 90.9088 261.828 90.8683C264.672 88.0023 267.072 84.742 269.211 81.2966C269.464 80.8905 269.841 80.5805 270.083 80.1664C272.458 81.958 274.698 83.958 276.781 86.1248C285.489 95.3122 291.031 107.354 292.396 120.083C296.563 158 298.667 196.542 298.667 234.667C298.667 272.792 296.563 311.333 292.396 349.292C291.031 361.979 285.489 374.021 276.927 383.042C267.948 392.354 256.625 398.208 244.146 400.021C195.396 407.208 145.948 407.208 97.1354 400.021C84.7083 398.208 73.3854 392.354 64.5521 383.208C55.8438 374.021 50.3021 361.979 48.9376 349.25C44.7708 311.333 42.6667 272.792 42.6667 234.667C42.6667 196.542 44.7708 158 48.9376 120.042C50.3021 107.354 55.8438 95.3124 64.4585 86.2291C66.5835 84.0207 68.8542 81.9791 71.2501 80.1666C71.4923 80.5807 71.8699 80.8907 72.1225 81.2969C74.2618 84.7422 76.6615 88.0026 79.5053 90.8685C79.5456 90.9088 79.5742 90.9609 79.6145 91.0014C82.5131 93.9036 85.8255 96.3424 89.3242 98.5195C90.345 99.155 91.4114 99.6666 92.4766 100.233C95.1927 101.68 98.0196 102.872 100.988 103.837C102.172 104.221 103.312 104.637 104.531 104.939C108.654 105.964 112.898 106.667 117.333 106.667H224C228.435 106.667 232.68 105.964 236.802 104.939C238.021 104.637 239.161 104.221 240.345 103.837ZM234.682 52.8958C234.691 52.9621 234.665 53.0287 234.676 53.095C234.675 53.03 234.682 52.9244 234.682 52.8958ZM234.333 51.875C234.396 52.6042 234.5 53.3333 234.646 54.0416C234.271 59.6043 229.646 64 224 64H117.333C111.781 64 107.208 59.7291 106.708 53.9375C106.844 53.2499 106.938 52.5626 107 51.875C107.49 46.6251 111.927 42.6667 117.333 42.6667H224C229.406 42.6667 233.844 46.6251 234.333 51.875Z" fill="white"/>
<path d="M106.667 234.667C118.449 234.667 128 225.115 128 213.333C128 201.551 118.449 192 106.667 192C94.8846 192 85.3334 201.551 85.3334 213.333C85.3334 225.115 94.8846 234.667 106.667 234.667Z" fill="white"/>
<path d="M149.333 213.333C149.333 225.125 158.885 234.667 170.667 234.667H234.667C246.448 234.667 256 225.125 256 213.333C256 201.542 246.448 192 234.667 192H170.667C158.885 192 149.333 201.542 149.333 213.333Z" fill="white"/>
<path d="M106.667 320C118.449 320 128 310.448 128 298.666C128 286.884 118.449 277.333 106.667 277.333C94.8846 277.333 85.3334 286.884 85.3334 298.666C85.3334 310.448 94.8846 320 106.667 320Z" fill="white"/>
<path d="M234.667 277.333H170.667C158.885 277.333 149.333 286.875 149.333 298.666C149.333 310.458 158.885 320 170.667 320H234.667C246.448 320 256 310.458 256 298.666C256 286.875 246.448 277.333 234.667 277.333Z" fill="white"/>
</svg>
