<svg width="448" height="448" viewBox="0 0 448 448" fill="none" xmlns="http://www.w3.org/2000/svg">
<path d="M170.684 426.667C195.404 426.667 220.327 425.803 244.809 424.156C252.234 425.095 260.725 424.247 266.85 430.542C278.496 442.031 293.788 447.813 309.142 447.813C324.704 447.813 340.329 441.896 352.392 430C355.496 426.802 359.954 424.958 364.6 424.958C380.871 424.958 396.079 418.729 407.413 407.406C418.746 396.083 424.975 380.875 424.975 364.583C424.975 359.948 426.829 355.479 430.246 352.146L430.454 351.937C430.496 351.906 430.517 351.865 430.559 351.833C453.663 328.396 453.663 290.271 430.038 266.323C426.767 263.135 424.975 258.708 424.975 253.865C424.975 237.719 418.746 222.583 407.413 211.26C407.371 211.219 405.204 209.26 405.163 209.219C404.559 208.635 402.871 207.26 402.204 206.75C400.642 205.542 398.434 203.823 395.559 202.292C388.954 198.062 381.621 195.406 374.184 194.552C370.454 193.865 366.975 193.708 364.6 193.708C359.954 193.708 355.496 191.865 351.954 188.219C328.475 164.719 290.246 164.719 266.309 188.667C265.318 189.687 263.988 190.312 262.744 191.042C279.236 170.879 289.163 145.243 289.163 117.333C289.163 52.6354 236.017 0 170.684 0C105.35 0 52.2044 52.6354 52.2044 117.333C52.2044 182.031 105.35 234.667 170.684 234.667C180.124 234.667 189.262 233.452 198.069 231.376C195.254 238.426 193.725 246.016 193.725 253.865C193.725 255.15 193.337 256.286 193.087 257.48C157.361 254.27 120.935 258.197 86.6628 269.417C46.1211 282.594 15.3503 312.021 4.41276 347.927L1.97526 355.729C-2.06641 369.25 0.141908 383.292 8.16275 395.281C17.7044 409.542 34.0794 418.844 53.1211 420.802C91.8086 424.688 131.371 426.667 170.684 426.667ZM296.913 218.385C303.788 211.531 314.934 211.542 321.767 218.375C332.871 229.813 348.475 236.375 366.35 236.5C367.309 236.708 368.267 236.854 369.225 236.938C370.329 237.031 371.538 237.521 372.829 238.406C373.892 239.135 373.809 239.125 374.996 239.646C374.996 239.646 376.1 240.5 376.809 241.042L377.246 241.427C380.517 244.698 382.309 249.115 382.309 253.865C382.309 270.094 388.85 285.771 400.184 296.792C406.892 303.583 406.892 315.073 400.184 321.865C388.829 332.979 382.309 348.542 382.309 364.583C382.309 369.479 380.517 373.969 377.246 377.229C373.975 380.49 369.496 382.292 364.6 382.292C348.475 382.292 332.871 388.854 321.892 400.167C315.079 406.875 303.579 406.854 296.934 400.292C285.829 388.854 270.142 382.292 253.892 382.292C252.225 382.292 251.371 382.167 250.579 381.99C250.521 381.971 250.456 381.961 250.391 381.948C250.26 381.904 250.142 381.866 250.007 381.818C248.855 381.41 247.536 380.909 245.621 380C244.163 379.417 242.704 378.396 241.454 377.24C238.184 373.969 236.392 369.479 236.392 364.583C236.392 355.865 234.475 347.052 230.288 337.969C227.017 331.781 223.204 326.552 218.413 321.771C215.121 318.469 213.309 314.052 213.309 309.333C213.309 304.615 215.121 300.198 218.621 296.687C219.434 295.885 220.309 294.812 221.184 293.635C230.996 282.948 236.392 268.885 236.392 253.865C236.392 249.115 238.184 244.698 241.454 241.427C244.725 238.167 249.142 236.375 253.892 236.375C270.142 236.375 285.829 229.813 296.913 218.385ZM170.684 192C128.871 192 94.8711 158.5 94.8711 117.333C94.8711 76.1667 128.871 42.6667 170.684 42.6667C212.496 42.6667 246.496 76.1667 246.496 117.333C246.496 158.5 212.496 192 170.684 192ZM42.7669 368.229L45.1836 360.552C52.1211 337.76 72.5378 318.865 99.8919 309.979C122.809 302.469 146.642 298.667 170.684 298.667C170.975 298.667 171.288 298.667 171.579 298.667C171.466 299.309 171.56 299.966 171.467 300.611C171.052 303.488 170.642 306.371 170.642 309.333C170.642 310.034 170.82 310.699 170.844 311.396C170.895 312.85 171.109 314.27 171.264 315.719C171.592 318.829 172.115 321.871 172.909 324.858C173.268 326.206 173.663 327.517 174.117 328.842C175.186 331.965 176.542 334.954 178.122 337.87C178.723 338.983 179.23 340.112 179.906 341.194C182.342 345.079 185.104 348.796 188.454 352.146C189.996 353.688 191.309 355.531 192.017 356.802C193.121 359.208 193.725 361.969 193.725 364.583C193.725 368.319 194.139 371.974 194.786 375.568C194.992 376.715 195.329 377.815 195.602 378.943C195.982 380.522 196.24 382.138 196.746 383.677C150.038 384.844 103.163 382.948 57.4544 378.354C50.1002 377.594 45.3919 374.219 43.6211 371.552C42.3502 369.646 42.6836 368.51 42.7669 368.229Z" fill="#3D6CEE"/>
<path d="M285.601 361.385C289.663 366.406 295.767 369.302 302.184 369.302C302.621 369.302 303.08 369.292 303.517 369.26C310.413 368.823 316.684 365.083 320.309 359.208L363.976 288.74C370.184 278.719 367.1 265.573 357.08 259.365C347.059 253.156 333.913 256.25 327.726 266.26L299.871 311.198L289.267 298.094C281.871 288.948 268.413 287.5 259.267 294.927C250.1 302.333 248.684 315.771 256.101 324.927L285.601 361.385Z" fill="#3D6CEE"/>
</svg>
