<svg width="448" height="448" viewBox="0 0 448 448" fill="none" xmlns="http://www.w3.org/2000/svg">
<path d="M426.632 213.25C426.632 185.562 423.579 158.198 417.652 132.302C413.902 114.364 404.111 97.9062 389.975 85.6562C389.319 84.948 388.611 84.2813 387.861 83.6667C353.257 55.3855 314.559 32.8645 272.954 16.75L245.819 6.07285C225.132 -2.0208 201.423 -2.03125 180.736 6.08331L153.746 16.7082C112.329 32.7498 73.6939 55.281 38.6419 83.9581C28.4478 92.3892 20.5208 103.112 15.056 114.924C14.9285 115.161 14.6991 115.298 14.5794 115.541C14.4728 115.758 14.5014 115.992 14.4024 116.209C12.147 121.307 10.2358 126.548 9.01699 131.989C-3.00392 185.541 -3.00392 241.76 9.00653 294.49C13.1941 313.198 23.5066 329.802 38.819 342.521C39.4441 343.041 40.1003 343.521 40.7879 343.958C74.1837 371.156 112.069 393.208 153.434 409.531L180.423 420.156C191.059 424.406 202.225 426.521 213.371 426.521C223.35 426.521 233.254 424.573 242.771 421.179C264.962 438.195 291.701 447.916 319.965 447.916C390.548 447.916 447.965 390.5 447.965 319.916C447.965 293.526 439.424 268.021 424.887 247.302C425.953 236.565 426.632 225.454 426.632 213.25ZM65.8294 116.833C66.0273 116.667 66.2565 116.469 66.4856 116.26C97.6107 90.9373 132.152 70.8332 169.267 56.4581L196.319 45.8019C207.132 41.5833 219.486 41.5935 230.236 45.7915L257.434 56.4997C258.753 57.0102 260.005 57.6534 261.318 58.178L111.884 139.625L65.7227 116.937C65.7605 116.905 65.7903 116.864 65.8294 116.833ZM191.965 319.916C191.965 327.213 192.807 334.388 194.029 341.483C194.352 343.361 194.736 345.204 195.142 347.063C196.511 353.319 198.275 359.465 200.577 365.453C200.886 366.255 201.081 367.087 201.405 367.884C203.599 373.266 206.122 378.533 209.059 383.625C204.684 383.208 200.35 382.166 196.152 380.489L169.079 369.833C131.173 354.875 96.569 334.625 66.2149 309.635C65.7148 309.229 65.2045 308.844 64.6731 308.489C57.4648 302.041 52.6315 294.021 50.6315 285.094C40.9361 242.539 40.4465 199.15 48.2031 155.871L80.444 171.713V235.114C80.444 246.896 89.996 256.448 101.777 256.448C113.559 256.448 123.111 246.896 123.111 235.114V192.678L181.704 221.468C184.715 222.948 187.913 223.646 191.059 223.646C198.954 223.646 206.538 219.25 210.236 211.687C215.423 201.104 211.038 188.333 200.454 183.156L158.759 162.664L308.681 80.949C326.29 90.9985 343.121 102.391 358.975 115.177C359.59 115.812 360.236 116.406 360.923 116.958C368.632 123.219 373.944 131.771 375.975 141.427C380.965 163.26 383.642 185.969 383.934 209C383.398 208.691 382.816 208.484 382.277 208.183C378.249 205.94 374.136 203.88 369.908 202.09C369.53 201.929 369.173 201.724 368.793 201.567C364.199 199.674 359.478 198.126 354.691 196.781C353.298 196.389 351.889 196.08 350.483 195.735C346.871 194.851 343.223 194.126 339.53 193.557C338.053 193.33 336.588 193.082 335.101 192.906C330.102 192.315 325.064 191.916 319.965 191.916C249.382 191.916 191.965 249.333 191.965 319.916ZM234.631 319.916C234.631 272.864 272.913 234.583 319.965 234.583C335.346 234.583 350.068 238.969 363.109 246.605L246.655 363.06C238.962 349.991 234.631 335.237 234.631 319.916ZM319.965 405.25C304.746 405.25 290.154 400.966 276.928 393.12L393.375 276.673C401.042 289.655 405.298 304.583 405.298 319.916C405.298 366.969 367.017 405.25 319.965 405.25Z" fill="white"/>
</svg>
