<svg width="406" height="427" viewBox="0 0 406 427" fill="none" xmlns="http://www.w3.org/2000/svg">
<path d="M350.67 214.541L337.348 217.729C334.858 218.166 332.556 218.771 329.191 219.687C289.389 229.375 251.264 244.041 216.046 263.187C199.212 272.166 189.921 290.187 192.379 309.104C194.848 328.104 208.493 343.208 227.296 347.625L260.056 355.104L262.405 354.859C262.57 355.041 262.629 355.28 262.802 355.458L270.983 391.292C275.723 412.125 294.014 426.666 315.462 426.666C332.358 426.666 347.275 417.687 355.348 402.687C375.796 364.896 391.056 324.396 400.66 282.416L404.066 267.916L404.077 267.833C407.556 252.791 403.108 237.312 392.191 226.396C381.275 215.479 365.785 211.021 350.67 214.541ZM359.098 272.791C350.327 311.104 336.441 347.979 317.806 382.437C315.962 385.812 313.108 384.229 312.587 381.812L304.264 345.333C304.216 345.121 304.09 344.948 304.038 344.737L324.358 324.417C332.691 316.083 332.691 302.583 324.358 294.25C316.024 285.917 302.524 285.917 294.191 294.25L273.847 314.594C273.604 314.534 273.405 314.389 273.16 314.333L236.931 306.062C236.295 305.916 234.941 305.604 234.691 303.625C234.441 301.729 235.524 301.167 236.264 300.771C268.41 283.291 303.066 269.958 339.274 261.146C339.472 261.104 341.212 260.625 341.399 260.583C342.535 260.271 343.608 259.937 345.962 259.5L362.024 256.562C362.702 257.25 362.587 257.875 362.514 258.208L359.098 272.791Z" fill="#3D6CEE"/>
<path d="M190.525 361.812C157.4 364.646 123.879 360.354 91.2328 349.125C73.5349 342.958 59.6495 324.896 54.9723 301.958C38.5559 222.167 38.5559 137.833 55.0142 57.8333C55.4203 55.7499 55.9099 53.7083 56.483 51.7083L74.3893 62.3541C80.7643 66.1457 88.7018 66.3125 95.2851 62.8332L127.941 45.4999L160.598 62.8332C166.868 66.1666 174.348 66.1666 180.618 62.8332L213.275 45.4999L245.931 62.8332C252.525 66.3332 260.462 66.1666 266.827 62.3541L284.733 51.729C285.316 53.7706 285.827 55.8956 286.243 58.0415C293.764 94.6041 297.889 132.208 298.525 169.812C298.723 181.583 308.368 190.062 320.222 190.792C331.993 190.583 341.389 180.875 341.191 169.104C340.504 128.854 336.087 88.5834 328.077 49.6667C325.264 35.2085 319.858 21.7708 312.014 9.70832C305.795 0.124963 293.087 -2.83333 283.243 2.97915L255.358 19.5417L223.285 2.5C217.014 -0.833333 209.535 -0.833333 203.264 2.5L170.608 19.8333L137.952 2.5C131.681 -0.833333 124.202 -0.833333 117.931 2.5L85.8579 19.5417L57.9725 2.97915C48.1497 -2.83333 35.4413 0.124963 29.2017 9.70832C21.3581 21.7708 15.9518 35.2083 13.181 49.4583C-4.39192 134.854 -4.39192 225.146 13.1705 310.5C20.8266 348.083 45.3581 378.312 77.2746 389.437C107.962 399.979 139.358 405.333 170.608 405.333C178.473 405.333 186.347 405 194.191 404.312C205.931 403.312 214.629 392.958 213.608 381.229C212.587 369.479 202.337 360.542 190.525 361.812Z" fill="#3D6CEE"/>
<path d="M106.608 170.667H148.462C160.243 170.667 169.795 161.125 169.795 149.333C169.795 137.542 160.243 128 148.462 128H106.608C94.8267 128 85.2747 137.542 85.2747 149.333C85.2747 161.125 94.8267 170.667 106.608 170.667ZM106.608 234.667H191.941C203.723 234.667 213.275 225.125 213.275 213.333C213.275 201.542 203.723 192 191.941 192H106.608C94.8267 192 85.2747 201.542 85.2747 213.333C85.2747 225.125 94.8267 234.667 106.608 234.667Z" fill="#3D6CEE"/>
</svg>
