<svg width="448" height="448" viewBox="0 0 448 448" fill="none" xmlns="http://www.w3.org/2000/svg">
<path d="M426.62 213.242C426.62 185.544 423.558 158.169 417.62 132.305C413.891 114.367 404.099 97.9089 389.974 85.6485C389.307 84.9402 388.599 84.2735 387.849 83.6589C353.224 55.3673 314.516 32.8463 272.932 16.7422L245.807 6.06509C225.12 -2.01832 201.412 -2.02856 180.724 6.07555L153.745 16.7006C112.328 32.7422 73.6823 55.2734 38.6409 83.9401C28.4169 92.3842 20.474 103.129 15.0157 114.968C14.8986 115.185 14.6889 115.311 14.5783 115.534C14.4806 115.732 14.5054 115.949 14.4143 116.15C12.15 121.264 10.2319 126.521 9.01568 131.982C-3.00523 185.513 -3.00523 241.732 9.01568 294.472C13.1823 313.19 23.4948 329.805 38.8073 342.513C39.4323 343.034 40.099 343.513 40.7863 343.951C74.1613 371.138 112.057 393.2 153.411 409.523L180.411 420.149C191.036 424.399 202.224 426.513 213.349 426.513C223.338 426.513 233.236 424.565 242.745 421.171C264.951 438.184 291.693 447.909 319.953 447.909C358.578 447.909 394.787 430.659 419.266 400.576C437.766 377.857 447.953 349.211 447.953 319.909C447.953 293.503 439.409 267.991 424.874 247.309C425.939 236.581 426.62 225.464 426.62 213.242ZM65.8074 116.836C66.0158 116.669 66.2449 116.461 66.474 116.253C97.5991 90.9297 132.141 70.8152 169.266 56.4506L196.307 45.7944C207.078 41.5653 219.453 41.5548 230.224 45.7839L257.411 56.4922C258.73 57.0027 259.984 57.6459 261.297 58.1705L111.874 139.616L65.7124 116.928C65.7463 116.9 65.7736 116.865 65.8074 116.836ZM194.024 341.483C194.345 343.349 194.726 345.186 195.132 347.034C196.513 353.336 198.296 359.533 200.634 365.575C200.93 366.339 201.112 367.132 201.423 367.891C203.621 373.26 206.154 378.52 209.099 383.617C204.703 383.211 200.349 382.169 196.141 380.482L169.057 369.826C131.162 354.867 96.5574 334.617 66.2033 309.628C65.7033 309.221 65.1825 308.836 64.6615 308.471C57.4532 302.044 52.6199 294.023 50.6199 285.086C40.935 242.517 40.4454 199.129 48.1916 155.863L80.4324 171.704V235.107C80.4324 246.888 89.9742 256.44 101.766 256.44C113.557 256.44 123.099 246.888 123.099 235.107V192.668L181.912 221.565C184.932 223.044 188.12 223.742 191.266 223.742C199.162 223.742 206.745 219.346 210.453 211.783C215.62 201.2 211.245 188.429 200.662 183.252L158.749 162.654L308.664 80.9389C326.272 90.9884 343.107 102.38 358.974 115.169C359.578 115.805 360.224 116.399 360.912 116.951C368.62 123.211 373.932 131.753 375.953 141.43C380.953 163.242 383.641 185.951 383.932 208.992C383.369 208.668 382.755 208.449 382.188 208.133C378.237 205.935 374.203 203.923 370.061 202.162C369.62 201.974 369.201 201.734 368.756 201.551C364.174 199.663 359.465 198.121 354.693 196.777C353.292 196.384 351.872 196.072 350.457 195.725C346.851 194.842 343.208 194.117 339.521 193.549C338.044 193.323 336.578 193.074 335.09 192.898C330.09 192.307 325.052 191.909 319.953 191.909C256.87 191.909 203.87 236.878 194.182 297.534C192.682 304.211 191.953 311.534 191.953 319.909C191.953 327.206 192.798 334.383 194.024 341.483ZM386.182 373.638C355.911 410.836 297.037 415.721 260.328 380.836C259.62 380.242 258.932 379.523 258.245 378.867C243.016 362.732 234.62 341.794 234.62 319.909C234.62 314.711 235.016 310.44 236.057 305.575C242.662 264.44 277.932 234.576 319.953 234.576C342.516 234.576 363.953 243.398 380.182 259.263C382.009 261.1 383.71 262.944 385.279 265.013C385.656 265.492 385.987 265.843 386.391 266.388C398.578 281.357 405.287 300.357 405.287 319.909C405.287 339.43 398.495 358.503 386.182 373.638Z" fill="#3D6CEE"/>
<path d="M341.287 311.076V277.243C341.287 265.461 331.745 255.909 319.953 255.909C308.162 255.909 298.62 265.461 298.62 277.243V319.909C298.62 325.566 300.87 330.992 304.87 334.992L335.516 365.638C339.683 369.805 345.141 371.888 350.599 371.888C356.058 371.888 361.516 369.805 365.683 365.638C374.016 357.305 374.016 343.805 365.683 335.472L341.287 311.076Z" fill="#3D6CEE"/>
</svg>
