<svg width="514" height="512" viewBox="0 0 514 512" fill="none" xmlns="http://www.w3.org/2000/svg">
<path d="M219.723 73.1431C246.559 73.1024 272.887 80.4554 295.818 94.3952C318.75 108.335 337.397 128.323 349.715 152.165C362.033 176.006 367.544 202.781 365.644 229.549C363.745 256.318 354.507 282.045 338.946 303.909L324.5 324.206L304.203 338.652C285.435 351.952 263.793 360.636 241.037 363.998C218.28 367.36 195.052 365.306 173.239 358.001C151.426 350.697 131.645 338.349 115.502 321.962C99.359 305.574 87.3107 285.608 80.336 263.688C73.3613 241.767 71.6571 218.511 75.3619 195.808C79.0666 173.105 88.0758 151.596 101.657 133.03C115.239 114.464 133.009 99.3645 153.524 88.9586C174.039 78.5527 196.72 73.134 219.723 73.1431ZM219.723 0.000197765C185.179 -0.0461765 151.112 8.06388 120.294 23.6704C89.4764 39.2769 62.7786 61.939 42.3734 89.8124C21.9682 117.686 8.4321 149.983 2.86662 184.076C-2.69887 218.169 -0.136499 253.094 10.3452 286.01C20.8269 318.925 38.9318 348.901 63.1866 373.498C87.4414 398.095 117.161 416.618 149.926 427.559C182.692 438.501 217.578 441.552 251.745 436.464C285.913 431.377 318.396 418.294 346.553 398.281L449.593 501.34C463.819 515.548 486.896 515.548 501.104 501.34L501.634 500.809C505.247 497.562 508.136 493.59 510.113 489.153C512.091 484.716 513.113 479.912 513.113 475.054C513.113 470.196 512.091 465.392 510.113 460.955C508.136 456.518 505.247 452.546 501.634 449.298L398.576 346.258C421.908 313.452 435.756 274.854 438.6 234.698C441.445 194.541 433.176 154.377 414.701 118.609C396.226 82.8413 368.258 52.852 333.865 31.9298C299.471 11.0076 259.98 -0.0394126 219.723 0.000197765Z" fill="#3D6CEE"/>
</svg>
