<svg width="448" height="448" viewBox="0 0 448 448" fill="none" xmlns="http://www.w3.org/2000/svg">
<path d="M170.618 426.667C192.306 426.667 214.201 426.063 235.681 424.875C247.431 424.219 256.451 414.156 255.785 402.396C255.139 390.625 245.451 381.646 233.306 382.271C175.243 385.469 115.472 384.167 57.3471 378.333C50.0348 377.604 45.3681 374.24 43.5973 371.583C42.3264 369.688 42.6806 368.542 42.8681 367.896L45.0973 360.552C52.0138 337.813 72.4723 318.906 99.8264 309.979C129.014 300.406 159.889 296.865 190.326 299.531C201.868 300.771 212.431 291.875 213.431 280.136C214.451 268.396 205.764 258.052 194.035 257.031C157.806 253.906 121.222 258.073 86.5556 269.427C46.0139 282.656 15.2431 312.083 4.26394 348.188L2.03478 355.552C-2.06939 369.125 0.0764402 383.219 8.09728 395.261C17.639 409.563 34.0348 418.875 53.0764 420.792C91.9098 424.688 131.451 426.667 170.618 426.667Z" fill="#3D6CEE"/>
<path d="M341.347 149.333C315.894 149.333 292.821 158.719 274.525 173.727C283.835 156.979 289.159 137.764 289.159 117.333C289.159 52.6354 236.013 0 170.68 0C105.347 0 52.2012 52.6354 52.2012 117.333C52.2012 182.031 105.347 234.667 170.68 234.667C200.295 234.667 227.335 223.777 248.127 205.926C240.227 220.755 235.326 237.413 235.326 255.354C235.326 288.484 250.954 319.676 277.347 339.938V426.667C277.347 434.063 281.18 440.927 287.472 444.813C293.743 448.698 301.597 449.021 308.222 445.75L341.347 429.188L374.472 445.75C377.493 447.25 380.743 448 384.014 448C387.909 448 391.805 446.927 395.222 444.813C401.514 440.927 405.347 434.063 405.347 426.667V340C431.51 320.064 447.368 288.706 447.368 255.354C447.368 196.896 399.805 149.333 341.347 149.333ZM170.68 192C128.868 192 94.8678 158.5 94.8678 117.333C94.8678 76.1667 128.868 42.6667 170.68 42.6667C212.493 42.6667 246.493 76.1667 246.493 117.333C246.493 158.5 212.493 192 170.68 192ZM362.68 392.146L350.889 386.25C347.889 384.75 344.618 384 341.347 384C338.076 384 334.805 384.75 331.805 386.25L320.014 392.146V359.24C320.702 359.378 321.413 359.322 322.103 359.447C328.465 360.605 334.891 361.385 341.347 361.385C347.798 361.385 354.214 360.609 360.558 359.46C361.258 359.335 361.982 359.389 362.68 359.25V392.146ZM374.472 309.667C373.472 310.167 372.472 310.76 371.639 311.302C357.576 318.583 340.83 320.27 325.795 316.763C320.732 315.564 315.826 313.766 311.222 311.375C311.088 311.293 310.756 311.104 310.508 310.96C310.002 310.66 309.494 310.361 309.451 310.333C289.764 298.813 277.993 278.25 277.993 255.354C277.993 220.417 306.409 192 341.347 192C376.284 192 404.701 220.417 404.701 255.354C404.701 278.25 392.93 298.813 374.472 309.667Z" fill="#3D6CEE"/>
</svg>
