<svg width="470" height="427" viewBox="0 0 470 427" fill="none" xmlns="http://www.w3.org/2000/svg">
<path d="M43.3698 380.287C46.819 406.384 68.9649 426.667 96 426.667C121.763 426.667 143.299 408.314 148.255 384H170.667H278.412C283.367 408.314 304.904 426.667 330.667 426.667C357.708 426.667 379.859 406.375 383.299 380.267C413.173 371.263 436.552 345.728 441.125 313.542L442.625 302.969C445.146 285.333 446.687 270.604 447.437 256.614C448.083 244.854 439.083 234.792 427.312 234.146C415.521 233.417 405.5 242.521 404.854 254.281C404.146 266.989 402.729 280.542 400.375 296.958L398.875 307.552C396.704 322.872 385.662 335.057 371.516 339.457C361.726 327.675 347.152 320 330.667 320C313.306 320 298.014 328.46 288.269 341.333H192V172.386C192 155.073 203.021 139.979 219.417 134.834C230.646 131.302 236.896 119.323 233.375 108.083C229.833 96.8542 217.917 90.5626 206.625 94.1251C179.95 102.508 160.262 123.482 152.768 149.333H115.937C90.1666 149.333 65.4374 161.542 49.7916 182L26.5207 212.386C9.41675 234.708 0 262.49 0 290.615V320C0 348.033 18.2317 371.65 43.3698 380.287ZM42.6667 290.615C42.6667 271.823 48.9583 253.25 60.3957 238.333L83.6666 207.938C91.3124 197.958 103.375 192 115.937 192H149.333V341.333H138.397C128.652 328.46 113.361 320 96 320C79.5665 320 65.0338 327.626 55.2435 339.345C47.862 335.986 42.6667 328.622 42.6667 320V290.615Z" fill="white"/>
<path d="M462.271 49.3438C457.063 28.4896 440.875 12.2814 420 7.05216C401.32 2.38293 382.087 0.0573875 362.874 0.0418142C362.801 0.0403208 362.741 0 362.667 0C362.596 0 362.538 0.0390388 362.467 0.0403188C343.244 0.0584521 324.022 2.39061 305.333 7.05195C284.458 12.2812 268.271 28.4894 263.062 49.3331C253.687 86.8435 253.687 126.489 263.062 163.989C268.271 184.844 284.458 201.052 305.354 206.281C324.104 210.969 343.375 213.302 362.666 213.302C381.958 213.302 401.25 210.958 420 206.281C440.875 201.052 457.062 184.844 462.271 164C471.646 126.49 471.646 86.8437 462.271 49.3438ZM420.896 153.656C419.5 159.188 415.187 163.5 409.646 164.886C378.896 172.573 346.417 172.573 315.708 164.886C310.146 163.5 305.833 159.188 304.438 153.646C296.771 122.917 296.771 90.4166 304.438 59.677C305.833 54.1457 310.146 49.8332 315.687 48.4478C324.129 46.3373 332.706 44.9361 341.333 43.9857V64C341.333 75.7813 350.875 85.3333 362.667 85.3333C374.458 85.3333 384 75.7813 384 64V43.9857C392.628 44.9363 401.204 46.3373 409.646 48.448C415.188 49.8438 419.5 54.1459 420.896 59.6877C428.563 90.4166 428.563 122.917 420.896 153.656Z" fill="white"/>
</svg>
