<svg width="443" height="443" viewBox="0 0 443 443" fill="none" xmlns="http://www.w3.org/2000/svg">
<path d="M442.614 325.292C442.614 316.521 437.26 308.667 429.104 305.438L384.469 287.854C374.562 283.938 366.646 276.021 362.739 266.125L345.125 221.459C341.917 213.313 334.041 207.958 325.281 207.958C316.521 207.958 308.646 213.313 305.437 221.458L287.823 266.125C283.916 276.021 276 283.938 266.125 287.833L221.458 305.438C213.302 308.667 207.948 316.521 207.948 325.292C207.948 334.063 213.302 341.917 221.458 345.146L266.094 362.729C276 366.646 283.917 374.563 287.823 384.458L305.437 429.125C308.646 437.271 316.521 442.625 325.281 442.625C334.041 442.625 341.917 437.271 345.125 429.125L362.739 384.459C366.646 374.563 374.562 366.646 384.437 362.75L429.104 345.146C437.26 341.917 442.614 334.063 442.614 325.292ZM325.281 363.667C317.292 346.938 303.677 333.313 286.917 325.292C303.667 317.271 317.281 303.667 325.281 286.917C333.271 303.646 346.885 317.271 363.646 325.292C346.896 333.313 333.281 346.917 325.281 363.667Z" fill="white"/>
<path d="M403.302 256.458C415.271 257.104 425.188 248.25 425.906 236.479C426.385 228.75 426.615 221 426.615 213.271C426.615 185.229 423.583 157.833 417.635 132.041C413.729 114.229 403.937 97.9167 389.948 85.8124C389.281 85.0832 388.552 84.3956 387.781 83.7708C353.51 55.6666 314.854 33.1041 272.854 16.6874L246.062 6.27081C225.271 -2.08332 201.427 -2.06242 180.906 6.1667L153.542 16.7084C111.667 33.1875 73.1042 55.7498 38.9167 83.7708C38.625 84.0208 38.2916 84.2915 37.9688 84.604C28.0612 92.9388 20.3803 103.432 15.0743 114.923C14.9363 115.176 14.6914 115.323 14.5625 115.583C14.4439 115.824 14.474 116.086 14.3646 116.329C12.1472 121.375 10.2709 126.552 9.09374 131.917C-3.03128 185.542 -3.02083 241.813 9.06259 294.458C13.1355 313.021 23.7084 330.167 38.8335 342.687C39.4897 343.229 40.1877 343.729 40.9064 344.187C74.3857 371.333 112.188 393.333 153.302 409.604L180.51 420.312C191.104 424.5 202.229 426.604 213.354 426.604C224.479 426.604 235.604 424.5 246.188 420.312C257.146 415.979 262.51 403.583 258.177 392.625C253.854 381.687 241.479 376.292 230.5 380.646C219.438 385.021 207.26 385.042 196.177 380.625L168.979 369.917C131.271 355 96.6876 334.75 66.1875 309.75C65.677 309.333 65.1458 308.937 64.5937 308.563C57.552 302.25 52.6562 294.042 50.6978 285.125C41.0871 243.259 40.5896 198.979 48.2694 155.942L80.4271 171.741V235.167C80.4271 246.958 89.9791 256.5 101.76 256.5C113.542 256.5 123.094 246.958 123.094 235.167V192.703L203.969 232.438C206.938 233.875 210.146 234.604 213.354 234.604C216.875 234.604 220.385 233.729 223.563 232L377.176 148.311C381.47 169.152 383.948 190.87 383.948 213.271C383.948 220.125 383.739 227 383.323 233.854C382.594 245.625 391.542 255.729 403.302 256.458ZM111.879 139.67L65.7382 117L65.7811 116.958C66.0311 116.75 66.3123 116.521 66.5937 116.25C97.1874 91.2918 131.687 71.1668 169.031 56.4585L196.521 45.8544C207.219 41.5834 219.489 41.5835 230.396 45.9378L257.354 56.4378C258.723 56.9731 260.017 57.6383 261.377 58.1878L111.879 139.67ZM212.833 189.271L158.762 162.704L308.643 81.013C324.753 90.22 340.056 100.626 354.581 112.04L212.833 189.271Z" fill="white"/>
</svg>
