<svg width="384" height="384" viewBox="0 0 384 384" fill="none" xmlns="http://www.w3.org/2000/svg">
<path d="M7.02352 334.677C12.2527 355.521 28.4505 371.719 49.3152 376.948C68.065 381.625 87.3463 383.969 106.638 383.969C125.919 383.969 145.221 381.625 163.982 376.948C174.957 374.194 184.495 368.272 191.971 360.356C199.451 368.27 208.993 374.194 219.982 376.948C238.732 381.625 258.013 383.969 277.305 383.969C296.586 383.969 315.888 381.625 334.648 376.948C355.492 371.719 371.69 355.521 376.919 334.656C386.284 297.156 386.284 257.511 376.919 219.99C371.69 199.146 355.492 182.948 334.648 177.719C334.659 177.719 334.638 177.719 334.648 177.719C316.004 173.07 296.802 170.753 277.612 170.729C277.503 170.728 277.414 170.667 277.305 170.667C277.191 170.667 277.099 170.729 276.986 170.73C257.807 170.758 238.624 173.074 219.961 177.719C208.986 180.473 199.449 186.395 191.973 194.31C191.218 193.512 190.46 192.754 189.662 191.999C197.574 184.519 203.499 174.977 206.253 163.99C215.617 126.49 215.617 86.8437 206.253 49.3229C201.024 28.4791 184.826 12.2812 163.982 7.05195C163.992 7.05195 163.971 7.05195 163.982 7.05195C145.337 2.40363 126.135 0.0859718 106.945 0.0625051C106.836 0.0612251 106.747 0 106.638 0C106.525 0 106.432 0.0625068 106.319 0.0637868C87.1407 0.0910935 67.9571 2.40747 49.2942 7.05216C28.4505 12.2812 12.2525 28.4792 7.02352 49.3438C-2.34096 86.8437 -2.34096 126.49 7.02352 164.01C9.77744 174.986 15.6991 184.524 23.6159 192C15.7019 199.479 9.77744 209.022 7.02352 220.01C-2.34117 257.51 -2.34117 297.156 7.02352 334.677ZM219.086 230.365C220.471 224.813 224.784 220.5 230.315 219.115C238.758 217.009 247.34 215.607 255.971 214.655V234.667C255.971 246.448 265.523 256 277.305 256C289.086 256 298.638 246.448 298.638 234.667V214.652C307.263 215.603 315.838 217.005 324.273 219.115C329.825 220.5 334.138 224.813 335.523 230.344C343.2 261.084 343.2 293.584 335.523 324.302C334.138 329.854 329.825 334.167 324.294 335.552C293.534 343.24 261.034 343.24 230.336 335.552C224.784 334.167 220.471 329.854 219.086 324.323C211.409 293.583 211.409 261.083 219.086 230.365ZM48.4194 59.6979C49.8047 54.1459 54.1173 49.8334 59.6484 48.448C68.0913 46.3424 76.6732 44.9402 85.3047 43.9883V64C85.3047 75.7813 94.8567 85.3333 106.638 85.3333C118.419 85.3333 127.971 75.7813 127.971 64V43.9857C136.596 44.9361 145.172 46.3386 153.607 48.448C159.159 49.8334 163.471 54.1459 164.857 59.6772C172.534 90.4169 172.534 122.917 164.857 153.636C163.471 159.188 159.159 163.5 153.627 164.886C122.867 172.573 90.3671 172.573 59.6691 164.886C54.1171 163.5 49.8045 159.188 48.4191 153.656C40.7421 122.917 40.7421 90.4166 48.4194 59.6979ZM48.4194 230.365C49.8047 224.813 54.1173 220.5 59.6486 219.115C68.0913 217.009 76.6732 215.607 85.3047 214.655V234.667C85.3047 246.448 94.8567 256 106.638 256C118.419 256 127.971 246.448 127.971 234.667V214.652C136.596 215.603 145.172 217.005 153.607 219.115C159.159 220.5 163.471 224.813 164.857 230.344C172.534 261.084 172.534 293.584 164.857 324.302C163.471 329.854 159.159 334.167 153.627 335.552C122.867 343.24 90.3671 343.24 59.6691 335.552C54.1171 334.167 49.8045 329.854 48.4191 324.323C40.7421 293.583 40.7421 261.083 48.4194 230.365Z" fill="white"/>
</svg>
