<svg width="422" height="464" viewBox="0 0 422 464" fill="none" xmlns="http://www.w3.org/2000/svg">
<path d="M45.0973 360.552C52.0138 337.812 72.4723 318.906 99.8265 309.979C132.243 299.354 166.618 296.156 200.618 300.667C212.389 302.229 223.014 294.021 224.576 282.344C226.139 270.667 217.931 259.938 206.243 258.375C165.91 252.969 125.035 256.823 86.5556 269.427C46.0139 282.656 15.2431 312.083 4.26394 348.187L2.03478 355.552C-2.06939 369.125 0.0764364 383.219 8.09728 395.26C17.639 409.563 34.0348 418.875 53.0764 420.792C91.9098 424.687 131.451 426.667 170.618 426.667C181.222 426.667 191.806 426.531 202.41 426.24C214.181 425.927 223.472 416.115 223.16 404.344C222.847 392.552 212.806 383.094 201.243 383.594C153.431 384.833 104.889 383.104 57.3471 378.333C50.0348 377.604 45.3681 374.24 43.5973 371.583C42.3264 369.687 42.6806 368.542 42.8681 367.896L45.0973 360.552ZM289.16 117.333C289.16 52.6354 236.014 0 170.681 0C105.347 0 52.2015 52.6354 52.2015 117.333C52.2015 182.031 105.347 234.667 170.681 234.667C236.014 234.667 289.16 182.031 289.16 117.333ZM170.681 192C128.868 192 94.8681 158.5 94.8681 117.333C94.8681 76.1667 128.868 42.6667 170.681 42.6667C212.493 42.6667 246.493 76.1667 246.493 117.333C246.493 158.5 212.493 192 170.681 192Z" fill="#3D6CEE"/>
<path d="M407.847 326.823L363.181 309.208C353.285 305.302 345.368 297.386 341.472 287.511L323.868 242.844C320.639 234.688 312.785 229.333 304.014 229.333C295.243 229.333 287.389 234.688 284.16 242.844L266.556 287.511C262.639 297.406 254.722 305.313 244.847 309.208L200.181 326.823C192.035 330.031 186.681 337.906 186.681 346.667C186.681 355.427 192.035 363.302 200.181 366.511L244.847 384.125C254.743 388.031 262.66 395.948 266.556 405.823L284.16 450.49C287.389 458.646 295.243 464 304.014 464C312.785 464 320.639 458.646 323.868 450.49L341.452 405.854C345.368 395.948 353.285 388.031 363.181 384.125L407.847 366.511C415.993 363.302 421.347 355.427 421.347 346.667C421.347 337.906 415.993 330.031 407.847 326.823ZM304.014 385.031C295.993 368.281 282.389 354.667 265.639 346.667C282.389 338.667 295.993 325.052 304.014 308.302C312.035 325.052 325.639 338.667 342.389 346.667C325.66 354.656 312.035 368.271 304.014 385.031Z" fill="#3D6CEE"/>
</svg>
