<svg width="406" height="427" viewBox="0 0 406 427" fill="none" xmlns="http://www.w3.org/2000/svg">
<path d="M106.609 128.005H148.463C160.255 128.005 169.797 118.463 169.797 106.671C169.797 94.8796 160.255 85.3379 148.463 85.3379H106.609C94.8176 85.3379 85.2759 94.8796 85.2759 106.671C85.2759 118.463 94.8176 128.005 106.609 128.005ZM191.943 192.005C203.734 192.005 213.276 182.463 213.276 170.671C213.276 158.88 203.734 149.338 191.943 149.338H106.609C94.8176 149.338 85.2759 158.88 85.2759 170.671C85.2759 182.463 94.8176 192.005 106.609 192.005H191.943Z" fill="black"/>
<path d="M349.755 220.858C346.497 220.334 343.2 219.999 339.911 219.53C340.724 206.651 341.276 193.641 341.276 180.067C341.276 136.046 336.818 92.1082 328.089 49.6291C325.255 35.2956 319.859 21.9 312.068 9.77499C305.88 0.150031 293.172 -2.87077 283.255 2.98331L255.359 19.4834L223.255 2.48326C217.005 -0.808475 209.547 -0.808475 203.297 2.48326L170.609 19.7957L137.922 2.48326C131.672 -0.808475 124.213 -0.808475 117.963 2.48326L85.8592 19.4834L57.9635 2.98331C48.026 -2.87098 35.3385 0.150031 29.1509 9.77499C21.3594 21.9 15.9635 35.2958 13.1718 49.4625C-4.39061 134.9 -4.39061 225.212 13.1718 310.629C20.8593 348.275 45.4219 378.483 77.1718 389.421C94.0676 395.328 111.434 399.267 128.854 401.83C137.994 411.032 149.712 417.342 162.109 419.15C193.255 424.15 224.61 426.629 255.964 426.629C287.297 426.629 318.609 424.15 349.672 419.171C373.047 415.525 392.068 398.629 398.214 375.859C402.901 357.587 405.276 338.796 405.276 320.004C405.276 301.212 402.901 282.421 398.151 263.879C392.068 241.379 373.047 224.483 349.755 220.858ZM91.1509 349.108C73.526 343.025 59.651 325.025 54.9634 302.067C38.5468 222.254 38.5468 137.858 55.005 57.8791C55.4007 55.7957 55.9008 53.7332 56.505 51.6916L74.4009 62.2957C80.7966 66.0666 88.6925 66.2332 95.255 62.7958L127.943 45.4834L160.63 62.7958C166.88 66.0875 174.339 66.0875 180.589 62.7958L213.276 45.4834L245.964 62.7958C252.526 66.2541 260.422 66.0875 266.818 62.2957L284.714 51.6916C285.318 53.775 285.839 55.9 286.255 58.0457C294.443 97.8791 298.609 138.921 298.609 180.067C298.609 192.046 298.276 203.567 297.609 214.921C296.139 214.813 294.829 214.856 293.373 214.759C280.519 213.908 267.997 213.337 255.943 213.337C225.484 213.337 193.922 215.858 162.214 220.837C138.839 224.483 119.818 241.379 113.672 264.15C108.984 282.421 106.609 301.212 106.609 320.004C106.609 328.429 107.263 336.884 108.241 345.38C108.43 347.017 108.594 348.663 108.822 350.305C109.023 351.771 109.108 353.221 109.338 354.691C103.255 353.067 97.1718 351.212 91.1509 349.108ZM343.026 377.025C285.234 386.275 226.63 386.254 168.588 376.983C164.276 376.358 160.172 373.838 157.318 370.067C157.292 370.016 157.252 369.971 157.216 369.926C157.154 369.832 157.051 369.631 156.976 369.512C156.434 368.629 155.656 367.186 155.005 365.275C152.976 357.395 151.57 349.391 150.618 341.337H170.609C182.401 341.337 191.943 331.796 191.943 320.004C191.943 308.213 182.401 298.671 170.609 298.671H150.613C151.558 290.66 152.95 282.731 154.943 275.004C156.609 268.754 162.047 264.046 168.797 263.004C198.359 258.358 227.693 256.004 255.943 256.004C274.443 256.004 293.755 257.087 314.942 259.296C315.338 259.337 315.963 259.379 316.588 259.4C325.338 260.4 334.276 261.587 343.13 263.004C349.838 264.046 355.276 268.754 356.88 274.733C358.909 282.613 360.315 290.617 361.267 298.671H341.276C329.484 298.671 319.943 308.213 319.943 320.004C319.943 331.796 329.484 341.337 341.276 341.337H361.272C360.327 349.348 358.935 357.278 356.943 365.004C355.276 371.254 349.839 375.963 343.026 377.025Z" fill="black"/>
<path d="M255.943 362.671C279.507 362.671 298.609 343.569 298.609 320.005C298.609 296.44 279.507 277.338 255.943 277.338C232.378 277.338 213.276 296.44 213.276 320.005C213.276 343.569 232.378 362.671 255.943 362.671Z" fill="black"/>
</svg>
