<svg width="427" height="384" viewBox="0 0 427 384" fill="none" xmlns="http://www.w3.org/2000/svg">
<path d="M9.41675 139.57C3.16672 169.279 0 199.82 0 230.362C0 255.945 2.26048 281.612 6.70827 306.528C9.84363 324.685 19.1563 341.476 32.7292 353.612C46.25 365.997 63.4167 373.851 82.7708 376.362C90.6562 377.247 98.5521 378.122 106.292 378.737C141.583 382.206 177.604 383.966 213.333 383.966C249.062 383.966 285.083 382.206 320 378.768C320.046 378.764 320.091 378.758 320.137 378.754C320.216 378.746 320.296 378.745 320.375 378.737L320.409 378.727C328.379 378.083 336.15 377.232 344.292 376.32C363.25 373.852 380.417 365.997 393.74 353.789C407.511 341.477 416.813 324.716 419.958 306.57C429.75 251.487 428.844 195.31 417.271 139.643L415.75 132.341C412.344 116.06 403.875 101.101 391.177 88.9869C354.562 54.4036 311.5 27.5076 263.052 8.99733C231.052 -2.98176 195.75 -3.03381 163.479 9.04939C115.167 27.5076 72.1041 54.4036 35.4061 89.0703C22.7917 101.101 14.323 116.06 10.8958 132.393L9.41675 139.57ZM275.634 339.255C270.623 339.551 265.625 339.917 260.603 340.14C229.164 341.54 197.517 341.543 165.922 340.131C161.102 339.915 156.302 339.562 151.49 339.281C144.452 338.871 137.434 338.289 130.41 337.737C130.633 331.906 130.969 325.858 131.228 319.966H295.44C295.699 325.858 296.035 331.913 296.258 337.742C289.391 338.284 282.53 338.849 275.634 339.255ZM292.009 255.966C292.457 263.121 292.914 270.295 293.311 277.299H133.358C133.757 270.293 134.211 263.12 134.662 255.966H292.009ZM143.939 213.299C144.561 212.365 144.905 211.187 145.594 210.32C149.344 205.57 155.771 199.476 164.99 197.445C198.135 190.174 228.573 190.185 261.635 197.435C270.896 199.476 277.323 205.57 281.094 210.341C281.777 211.203 282.118 212.371 282.737 213.299H143.939ZM51.1874 148.289L52.6667 141.091C54.3021 133.299 58.5208 125.987 64.7812 120.008C97.3124 89.2785 135.646 65.3619 178.573 48.9555C189.781 44.7578 201.469 42.6327 213.333 42.6327C225.198 42.6327 236.885 44.7578 247.958 48.9037C291.021 65.3619 329.354 89.2787 361.802 119.924C368.146 125.987 372.365 133.299 373.979 141.039L375.49 148.31C385.969 198.685 386.792 249.435 377.938 299.164C377.927 299.206 377.917 299.279 377.917 299.279C376.417 307.987 371.938 316.05 365.104 322.154C358 328.675 349.135 332.664 339.188 333.966C339.059 333.981 338.919 333.992 338.79 334.007C337.543 301.776 335.777 268.729 333.385 233.498C332.01 214.852 325.5 197.685 314.552 183.862C303 169.248 287.885 159.539 270.802 155.758C231.677 147.196 195.031 147.185 155.823 155.769C138.781 159.539 123.667 169.248 112.135 183.841C101.167 197.685 94.6562 214.852 93.2813 233.612C90.8841 268.83 89.2369 301.726 87.9883 334.02L87.875 334.008C77.5313 332.664 68.6667 328.675 61.3645 321.977C54.729 316.05 50.2498 307.987 48.729 299.164C44.7083 276.591 42.6667 253.445 42.6667 230.362C42.6667 202.768 45.5313 175.174 51.1874 148.289Z" fill="white"/>
</svg>
