<svg width="427" height="427" viewBox="0 0 427 427" fill="none" xmlns="http://www.w3.org/2000/svg">
<path d="M74.6667 426.667H352C393.167 426.667 426.667 393.167 426.667 352C426.667 324.806 411.896 301.198 390.105 288.142C393.648 282.77 396.637 277 398.302 270.552C402.969 251.865 405.333 232.615 405.333 213.333C405.333 194.052 402.969 174.802 398.26 155.948C392.917 135.26 376.74 119.083 355.917 113.708C337.527 109.083 318.541 106.913 299.546 106.844C299.237 106.831 298.978 106.667 298.667 106.667C298.219 106.667 297.845 106.895 297.405 106.922C290.695 106.96 283.982 107.036 277.303 107.646C277.305 107.301 277.333 107.016 277.333 106.667C277.333 87.3854 274.969 68.1355 270.26 49.2813C264.917 28.5937 248.74 12.4167 227.917 7.04174C193.656 -1.58333 157.281 -2.32275 122.302 5.03128L113.281 7.07288C92.5937 12.4167 76.4166 28.5937 71.0312 49.4479C66.3646 68.1355 64 87.3854 64 106.667C64 109.891 64.0704 113.171 64.2227 116.346C46.7526 123.154 33.1588 137.547 28.3646 156.115C23.6979 174.802 21.3333 194.052 21.3333 213.333C21.3333 232.615 23.6979 251.865 28.4062 270.719C30.0533 277.094 33.0182 282.816 36.5429 288.151C14.7618 301.21 0 324.813 0 352C0 393.167 33.4999 426.667 74.6667 426.667ZM240.385 166.615C241.875 160.865 246.198 156.542 251.75 155.104L259.51 153.375C259.505 153.377 259.516 153.374 259.51 153.375C259.606 153.349 259.716 153.322 259.802 153.302C265.583 152.102 271.454 151.352 277.333 150.697V170.667C277.333 182.448 286.885 192 298.667 192C310.448 192 320 182.448 320 170.667V150.693C328.56 151.639 337.065 152.966 345.385 155.052C351.135 156.542 355.458 160.865 356.906 166.448C360.729 181.76 362.667 197.531 362.667 213.333C362.667 229.135 360.729 244.906 356.948 260.052C355.458 265.802 351.135 270.125 345.552 271.573C314.927 279.219 282.24 279.177 251.948 271.615C246.198 270.125 241.875 265.802 240.385 260.042C237.677 249.562 236.031 239.135 235.375 227.719C234.823 222.979 234.667 218.063 234.667 213.333C234.667 204.594 235.135 197.302 236.271 189.375C236.948 182.448 238.313 174.948 240.385 166.615ZM106.667 106.667C106.667 90.8647 108.604 75.0938 112.385 59.948C113.875 54.198 118.198 49.875 123.385 48.521L131.521 46.6876C159.729 40.7813 189.479 41.3647 217.385 48.3855C223.135 49.875 227.458 54.198 228.906 59.7814C232.729 75.0938 234.667 90.8647 234.667 106.667C234.667 109.948 234.604 113.021 234.469 115.948C232.772 116.615 231.297 117.655 229.682 118.47C228.173 119.233 226.666 119.929 225.237 120.813C222.157 122.715 219.361 124.943 216.695 127.365C215.823 128.158 214.837 128.797 214.014 129.641C213.806 129.854 213.539 130.003 213.333 130.219C213.155 130.03 212.905 129.919 212.724 129.733C210.259 127.203 207.342 125.199 204.452 123.143C203.001 122.112 201.78 120.82 200.236 119.92C195.608 117.223 190.604 115.088 185.26 113.708C176.263 111.442 167.221 109.797 158.158 108.612C155.215 108.227 152.26 108.167 149.312 107.896C143.2 107.335 137.091 106.822 130.967 106.751C130.068 106.741 129.171 106.583 128.271 106.583C123.081 106.583 117.887 106.965 112.693 107.319C110.986 107.435 109.276 107.408 107.569 107.561C107.268 107.589 106.967 107.576 106.667 107.604C106.667 107.292 106.667 106.979 106.667 106.667ZM69.7188 166.615C71.2083 160.865 75.5313 156.542 81.1356 155.083C83.677 154.448 86.2187 153.76 88.7708 153.448C89.5755 153.352 90.3725 153.138 91.168 152.947C95.1537 152.151 99.1563 151.763 103.152 151.225C104.324 151.068 105.495 150.874 106.667 150.738V170.667C106.667 182.448 116.219 192 128 192C139.781 192 149.333 182.448 149.333 170.667V150.636C150.891 150.811 152.453 150.81 154.008 151.025C160.939 151.982 167.849 153.32 174.719 155.052C180.469 156.542 184.792 160.865 186.208 166.323C188.344 175.083 189.708 182.823 190.531 191.115C191.531 197.802 192 204.865 192 213.333C192 218.261 191.844 223.187 191.198 228.844C190.458 239.062 188.771 249.677 186.281 260.052C184.792 265.802 180.469 270.125 174.885 271.573C144.26 279.219 111.573 279.177 81.2811 271.615C75.5311 270.125 71.2081 265.802 69.7602 260.219C65.9375 244.906 64 229.135 64 213.333C64 197.531 65.9375 181.76 69.7188 166.615ZM74.6667 320H352C369.646 320 384 334.354 384 352C384 369.646 369.646 384 352 384H74.6667C57.0208 384 42.6667 369.646 42.6667 352C42.6667 334.354 57.0208 320 74.6667 320Z" fill="white"/>
<path d="M74.6667 362.666H117.333C123.229 362.666 128 357.896 128 352C128 346.104 123.229 341.333 117.333 341.333H74.6667C68.7708 341.333 64 346.104 64 352C64 357.896 68.7708 362.666 74.6667 362.666ZM309.333 362.666H352C357.896 362.666 362.667 357.896 362.667 352C362.667 346.104 357.896 341.333 352 341.333H309.333C303.437 341.333 298.667 346.104 298.667 352C298.667 357.896 303.437 362.666 309.333 362.666ZM181.333 362.666H245.333C251.229 362.666 256 357.896 256 352C256 346.104 251.229 341.333 245.333 341.333H181.333C175.437 341.333 170.667 346.104 170.667 352C170.667 357.896 175.437 362.666 181.333 362.666Z" fill="white"/>
</svg>
